<?xml version="1.0" standalone="no"?>
<!DOCTYPE svg PUBLIC "-//W3C//DTD SVG 20010904//EN"
 "http://www.w3.org/TR/2001/REC-SVG-20010904/DTD/svg10.dtd">
<svg version="1.0" xmlns="http://www.w3.org/2000/svg"
 width="1000.000000pt" height="1000.000000pt" viewBox="0 0 1000.000000 1000.000000"
 preserveAspectRatio="xMidYMid meet">
<metadata>
Created by potrace 1.11, written by Peter Selinger 2001-2013
</metadata>
<g transform="translate(0.000000,1000.000000) scale(0.100000,-0.100000)"
fill="#000000" stroke="none">
<path d="M3600 8404 c-499 -37 -848 -101 -1230 -226 -1125 -367 -1887 -1081
-2204 -2067 -250 -776 -215 -1741 90 -2468 449 -1072 1513 -1806 2904 -2002
328 -46 320 -46 1870 -46 1576 0 1566 0 1920 51 525 75 1018 225 1430 435 472
240 857 571 1132 974 270 396 430 862 483 1403 l7 72 -901 0 -900 0 -6 -37
c-14 -95 -77 -326 -110 -406 -121 -287 -343 -517 -642 -666 -294 -146 -645
-225 -1118 -251 -238 -13 -2383 -13 -2590 0 -423 26 -750 105 -1040 250 -175
88 -303 178 -425 301 -245 246 -389 550 -446 945 -22 146 -24 494 -5 634 56
417 200 730 451 980 328 328 807 508 1456 550 213 13 2370 13 2579 0 521 -34
910 -154 1196 -370 215 -161 378 -379 474 -635 l23 -60 901 -3 901 -2 -6 27
c-107 482 -310 923 -602 1308 -95 124 -375 407 -502 507 -503 394 -1112 647
-1815 754 -321 48 -292 48 -1805 49 -784 1 -1445 0 -1470 -1z"/>
<path d="M4975 6289 c-583 -50 -1063 -490 -1166 -1069 -17 -97 -17 -344 0
-440 93 -517 496 -938 1005 -1046 572 -122 1158 155 1424 674 100 194 142 369
142 592 0 155 -18 276 -61 404 -191 573 -745 937 -1344 885z"/>
</g>
</svg>
